<?xml version="1.0" encoding="utf-8"?>
<!-- Generator: Adobe Illustrator 16.0.0, SVG Export Plug-In . SVG Version: 6.00 Build 0)  -->
<!DOCTYPE svg PUBLIC "-//W3C//DTD SVG 1.1//EN" "http://www.w3.org/Graphics/SVG/1.1/DTD/svg11.dtd">
<svg version="1.1" xmlns="http://www.w3.org/2000/svg" xmlns:xlink="http://www.w3.org/1999/xlink" x="0px" y="0px"
	 width="1141.109px" height="300px" viewBox="0 0 1141.109 300" enable-background="new 0 0 1141.109 300" xml:space="preserve">
<g id="bg" display="none">
</g>
<g id="Typescript" display="none">
</g>
<g id="Uranus_1_">
	<g id="logo_vertical" display="none">
	</g>
	<g id="logo_horizontal">
		<g id="Logo_horizontal_black" display="none">
			<g display="inline">
				<circle fill="#212121" cx="150" cy="150.004" r="103.571"/>
				<path fill="#221F1F" d="M275.714,77.803c4.402-3.789,7.189-9.399,7.189-15.64c0-11.393-9.269-20.662-20.654-20.662
					c-4.471,0-8.605,1.424-11.988,3.849C224.205,20.372,188.861,5,149.996,5c-79.949,0-145,65.052-145,145
					c0,79.958,65.051,145,145,145c79.957,0,145-65.042,145-145C294.996,123.737,287.979,99.078,275.714,77.803z M253.395,48.44
					c2.546-1.657,5.593-2.624,8.855-2.624c9.011,0,16.338,7.336,16.338,16.347c0,4.669-1.967,8.89-5.126,11.868
					c-1.044,1.001-2.227,1.856-3.513,2.538c-2.296,1.234-4.92,1.934-7.699,1.934c-9.011,0-16.347-7.328-16.347-16.339
					c0-4.194,1.58-8.018,4.195-10.918C251.064,50.167,252.169,49.226,253.395,48.44z M149.996,290.686
					C72.43,290.686,9.312,227.575,9.312,150C9.312,72.435,72.43,9.316,149.996,9.316c37.579,0,71.767,14.811,97.021,38.908
					c-3.375,3.677-5.429,8.571-5.429,13.939c0,11.384,9.27,20.654,20.663,20.654c3.591,0,6.965-0.915,9.908-2.529
					c11.782,20.56,18.522,44.364,18.522,69.712C290.681,227.575,227.571,290.686,149.996,290.686z"/>
			</g>
			<g display="inline">
				<path fill="#212121" d="M428.647,167.276c0,5.467-1.196,10.335-3.587,14.605c-2.392,4.271-5.797,7.613-10.217,10.025
					c-4.42,2.413-9.641,3.619-15.662,3.619c-6.021,0-11.232-1.206-15.63-3.619c-4.399-2.413-7.805-5.754-10.217-10.025
					c-2.413-4.27-3.619-9.138-3.619-14.605V83.552h-23.766v85.709c0,9.396,2.199,17.659,6.598,24.791
					c4.398,7.132,10.59,12.694,18.577,16.687c7.985,3.993,17.338,5.989,28.057,5.989c10.676,0,20.007-1.996,27.994-5.989
					c7.985-3.993,14.188-9.555,18.608-16.687c4.42-7.132,6.63-15.395,6.63-24.791V83.552h-23.766V167.276z"/>
				<path fill="#212121" d="M552.661,161.671c6.918-3.352,12.161-8.114,15.727-14.285c3.565-6.17,5.349-13.462,5.349-21.875
					c0-8.37-1.762-15.705-5.285-22.004c-3.523-6.299-8.712-11.199-15.566-14.701c-6.854-3.501-15.321-5.253-25.399-5.253h-49.196
					v131.19h23.766v-48.043h24.183l25.781,48.043h26.52l-28.389-51.963C551.008,162.432,551.848,162.065,552.661,161.671z
					 M502.056,103.41h21.78c5.935,0,10.782,0.865,14.541,2.594c3.757,1.729,6.555,4.25,8.391,7.559
					c1.835,3.31,2.754,7.292,2.754,11.947c0,4.655-0.907,8.574-2.723,11.754c-1.815,3.182-4.602,5.595-8.359,7.239
					c-3.758,1.645-8.584,2.466-14.477,2.466h-21.908V103.41z"/>
				<path fill="#212121" d="M633.309,83.552l-46.186,131.19h25.367l10.849-32.349h49.322l10.869,32.349h25.367l-46.25-131.19
					H633.309z M629.741,163.304l17.724-52.848h1.025l17.756,52.848H629.741z"/>
				<polygon fill="#212121" points="810.362,172.977 809.209,172.977 747.457,83.552 726.19,83.552 726.19,214.743 749.955,214.743 
					749.955,125.382 751.044,125.382 812.86,214.743 833.999,214.743 833.999,83.552 810.362,83.552 				"/>
				<path fill="#212121" d="M942.511,167.276c0,5.467-1.196,10.335-3.587,14.605c-2.392,4.271-5.797,7.613-10.217,10.025
					c-4.42,2.413-9.641,3.619-15.662,3.619s-11.232-1.206-15.63-3.619c-4.399-2.413-7.805-5.754-10.217-10.025
					c-2.413-4.27-3.62-9.138-3.62-14.605V83.552h-23.765v85.709c0,9.396,2.199,17.659,6.598,24.791
					c4.398,7.132,10.591,12.694,18.577,16.687c7.985,3.993,17.337,5.989,28.057,5.989c10.676,0,20.007-1.996,27.993-5.989
					c7.985-3.993,14.189-9.555,18.609-16.687c4.42-7.132,6.63-15.395,6.63-24.791V83.552h-23.765V167.276z"/>
				<path fill="#212121" d="M1084.91,163.048c-2.136-4.228-5.028-7.836-8.68-10.826c-3.651-2.989-7.773-5.466-12.363-7.431
					c-4.591-1.964-9.363-3.523-14.317-4.676l-12.299-3.075c-2.69-0.641-5.36-1.43-8.007-2.37c-2.648-0.939-5.061-2.103-7.239-3.491
					c-2.178-1.387-3.897-3.085-5.156-5.093c-1.26-2.007-1.89-4.377-1.89-7.11c0.042-3.288,1.003-6.213,2.883-8.776
					c1.879-2.562,4.59-4.59,8.135-6.085c3.544-1.494,7.793-2.242,12.748-2.242c7.046,0,12.78,1.56,17.2,4.676
					c4.42,3.118,6.928,7.474,7.527,13.068h22.869c-0.128-7.388-2.2-13.933-6.214-19.634c-4.015-5.701-9.535-10.163-16.559-13.388
					c-7.025-3.224-15.192-4.836-24.502-4.836c-9.182,0-17.403,1.612-24.662,4.836c-7.261,3.225-12.994,7.741-17.2,13.548
					c-4.207,5.809-6.31,12.578-6.31,20.307c0,9.396,3.128,16.922,9.384,22.58c6.256,5.659,14.787,9.876,25.591,12.651l14.925,3.844
					c4.697,1.196,8.808,2.552,12.331,4.067c3.523,1.517,6.267,3.396,8.231,5.637c1.964,2.242,2.968,5.072,3.011,8.488
					c-0.043,3.758-1.175,7.036-3.395,9.833c-2.221,2.797-5.285,4.976-9.192,6.534c-3.907,1.56-8.445,2.338-13.612,2.338
					c-4.954,0-9.427-0.747-13.42-2.242c-3.994-1.495-7.229-3.757-9.705-6.79c-2.478-3.032-3.887-6.833-4.228-11.402h-23.381
					c0.342,8.712,2.616,16.101,6.822,22.164c4.206,6.064,10.057,10.676,17.552,13.836c7.495,3.16,16.345,4.74,26.552,4.74
					c10.505,0,19.462-1.633,26.872-4.9c7.409-3.267,13.078-7.815,17.007-13.645c3.929-5.829,5.894-12.587,5.894-20.274
					C1088.113,172.23,1087.045,167.276,1084.91,163.048z"/>
			</g>
		</g>
		<g id="Logo_horizontal_white_1_" display="none">
			<g display="inline">
				<circle fill="#FFFFFF" cx="150" cy="150.004" r="103.571"/>
				<path fill="#FFFFFF" d="M275.714,77.803c4.402-3.789,7.189-9.399,7.189-15.64c0-11.393-9.269-20.662-20.654-20.662
					c-4.471,0-8.605,1.424-11.988,3.849C224.205,20.372,188.861,5,149.996,5c-79.949,0-145,65.052-145,145
					c0,79.958,65.051,145,145,145c79.957,0,145-65.042,145-145C294.996,123.737,287.979,99.078,275.714,77.803z M253.395,48.44
					c2.546-1.657,5.593-2.624,8.855-2.624c9.011,0,16.338,7.336,16.338,16.347c0,4.669-1.967,8.89-5.126,11.868
					c-1.044,1.001-2.227,1.856-3.513,2.538c-2.296,1.234-4.92,1.934-7.699,1.934c-9.011,0-16.347-7.328-16.347-16.339
					c0-4.194,1.58-8.018,4.195-10.918C251.064,50.167,252.169,49.226,253.395,48.44z M149.996,290.686
					C72.43,290.686,9.312,227.575,9.312,150C9.312,72.435,72.43,9.316,149.996,9.316c37.579,0,71.767,14.811,97.021,38.908
					c-3.375,3.677-5.429,8.571-5.429,13.939c0,11.384,9.27,20.654,20.663,20.654c3.591,0,6.965-0.915,9.908-2.529
					c11.782,20.56,18.522,44.364,18.522,69.712C290.681,227.575,227.571,290.686,149.996,290.686z"/>
			</g>
			<g display="inline">
				<path fill="#FFFFFF" d="M428.647,167.276c0,5.467-1.196,10.335-3.587,14.605c-2.392,4.271-5.797,7.613-10.217,10.025
					c-4.42,2.413-9.641,3.619-15.662,3.619c-6.021,0-11.232-1.206-15.63-3.619c-4.399-2.413-7.805-5.754-10.217-10.025
					c-2.413-4.27-3.619-9.138-3.619-14.605V83.552h-23.766v85.709c0,9.396,2.199,17.659,6.598,24.791
					c4.398,7.132,10.59,12.694,18.577,16.687c7.985,3.993,17.338,5.989,28.057,5.989c10.676,0,20.007-1.996,27.994-5.989
					c7.985-3.993,14.188-9.555,18.608-16.687c4.42-7.132,6.63-15.395,6.63-24.791V83.552h-23.766V167.276z"/>
				<path fill="#FFFFFF" d="M552.661,161.671c6.918-3.352,12.161-8.114,15.727-14.285c3.565-6.17,5.349-13.462,5.349-21.875
					c0-8.37-1.762-15.705-5.285-22.004c-3.523-6.299-8.712-11.199-15.566-14.701c-6.854-3.501-15.321-5.253-25.399-5.253h-49.196
					v131.19h23.766v-48.043h24.183l25.781,48.043h26.52l-28.389-51.963C551.008,162.432,551.848,162.065,552.661,161.671z
					 M502.056,103.41h21.78c5.935,0,10.782,0.865,14.541,2.594c3.757,1.729,6.555,4.25,8.391,7.559
					c1.835,3.31,2.754,7.292,2.754,11.947c0,4.655-0.907,8.574-2.723,11.754c-1.815,3.182-4.602,5.595-8.359,7.239
					c-3.758,1.645-8.584,2.466-14.477,2.466h-21.908V103.41z"/>
				<path fill="#FFFFFF" d="M633.309,83.552l-46.186,131.19h25.367l10.849-32.349h49.322l10.869,32.349h25.367l-46.25-131.19
					H633.309z M629.741,163.304l17.724-52.848h1.025l17.756,52.848H629.741z"/>
				<polygon fill="#FFFFFF" points="810.362,172.977 809.209,172.977 747.457,83.552 726.19,83.552 726.19,214.743 749.955,214.743 
					749.955,125.382 751.044,125.382 812.86,214.743 833.999,214.743 833.999,83.552 810.362,83.552 				"/>
				<path fill="#FFFFFF" d="M942.511,167.276c0,5.467-1.196,10.335-3.587,14.605c-2.392,4.271-5.797,7.613-10.217,10.025
					c-4.42,2.413-9.641,3.619-15.662,3.619s-11.232-1.206-15.63-3.619c-4.399-2.413-7.805-5.754-10.217-10.025
					c-2.413-4.27-3.62-9.138-3.62-14.605V83.552h-23.765v85.709c0,9.396,2.199,17.659,6.598,24.791
					c4.398,7.132,10.591,12.694,18.577,16.687c7.985,3.993,17.337,5.989,28.057,5.989c10.676,0,20.007-1.996,27.993-5.989
					c7.985-3.993,14.189-9.555,18.609-16.687c4.42-7.132,6.63-15.395,6.63-24.791V83.552h-23.765V167.276z"/>
				<path fill="#FFFFFF" d="M1084.91,163.048c-2.136-4.228-5.028-7.836-8.68-10.826c-3.651-2.989-7.773-5.466-12.363-7.431
					c-4.591-1.964-9.363-3.523-14.317-4.676l-12.299-3.075c-2.69-0.641-5.36-1.43-8.007-2.37c-2.648-0.939-5.061-2.103-7.239-3.491
					c-2.178-1.387-3.897-3.085-5.156-5.093c-1.26-2.007-1.89-4.377-1.89-7.11c0.042-3.288,1.003-6.213,2.883-8.776
					c1.879-2.562,4.59-4.59,8.135-6.085c3.544-1.494,7.793-2.242,12.748-2.242c7.046,0,12.78,1.56,17.2,4.676
					c4.42,3.118,6.928,7.474,7.527,13.068h22.869c-0.128-7.388-2.2-13.933-6.214-19.634c-4.015-5.701-9.535-10.163-16.559-13.388
					c-7.025-3.224-15.192-4.836-24.502-4.836c-9.182,0-17.403,1.612-24.662,4.836c-7.261,3.225-12.994,7.741-17.2,13.548
					c-4.207,5.809-6.31,12.578-6.31,20.307c0,9.396,3.128,16.922,9.384,22.58c6.256,5.659,14.787,9.876,25.591,12.651l14.925,3.844
					c4.697,1.196,8.808,2.552,12.331,4.067c3.523,1.517,6.267,3.396,8.231,5.637c1.964,2.242,2.968,5.072,3.011,8.488
					c-0.043,3.758-1.175,7.036-3.395,9.833c-2.221,2.797-5.285,4.976-9.192,6.534c-3.907,1.56-8.445,2.338-13.612,2.338
					c-4.954,0-9.427-0.747-13.42-2.242c-3.994-1.495-7.229-3.757-9.705-6.79c-2.478-3.032-3.887-6.833-4.228-11.402h-23.381
					c0.342,8.712,2.616,16.101,6.822,22.164c4.206,6.064,10.057,10.676,17.552,13.836c7.495,3.16,16.345,4.74,26.552,4.74
					c10.505,0,19.462-1.633,26.872-4.9c7.409-3.267,13.078-7.815,17.007-13.645c3.929-5.829,5.894-12.587,5.894-20.274
					C1088.113,172.23,1087.045,167.276,1084.91,163.048z"/>
			</g>
		</g>
		<g id="Logo_horizontal_light" display="none">
			<g display="inline">
				<g>
					<circle opacity="0.1" fill="#FFFFFF" cx="148.919" cy="150" r="142.842"/>
					<circle fill="#FFFFFF" cx="148.919" cy="150" r="103.571"/>
					<circle fill="#FFFFFF" cx="261.166" cy="62.156" r="18.499"/>
				</g>
			</g>
			<g display="inline">
				<path fill="#FFFFFF" d="M427.566,167.272c0,5.467-1.196,10.335-3.587,14.605c-2.392,4.271-5.797,7.613-10.217,10.025
					c-4.42,2.413-9.641,3.619-15.662,3.619c-6.021,0-11.232-1.206-15.63-3.619c-4.399-2.413-7.805-5.754-10.217-10.025
					c-2.413-4.27-3.619-9.138-3.619-14.605V83.549h-23.766v85.709c0,9.396,2.199,17.659,6.598,24.791
					c4.398,7.132,10.59,12.694,18.577,16.687c7.985,3.993,17.338,5.989,28.057,5.989c10.676,0,20.007-1.996,27.994-5.989
					c7.985-3.993,14.188-9.555,18.608-16.687c4.42-7.132,6.63-15.395,6.63-24.791V83.549h-23.766V167.272z"/>
				<path fill="#FFFFFF" d="M551.581,161.667c6.918-3.352,12.161-8.114,15.727-14.285c3.565-6.17,5.349-13.462,5.349-21.875
					c0-8.37-1.762-15.705-5.285-22.004c-3.523-6.299-8.712-11.199-15.566-14.701c-6.854-3.501-15.321-5.253-25.399-5.253H477.21
					v131.19h23.766v-48.043h24.183l25.781,48.043h26.52l-28.389-51.963C549.928,162.429,550.767,162.062,551.581,161.667z
					 M500.976,103.407h21.78c5.935,0,10.782,0.865,14.541,2.594c3.757,1.729,6.555,4.25,8.391,7.559
					c1.835,3.31,2.754,7.292,2.754,11.947c0,4.655-0.907,8.574-2.723,11.754c-1.815,3.182-4.602,5.595-8.359,7.239
					c-3.758,1.645-8.584,2.466-14.477,2.466h-21.908V103.407z"/>
				<path fill="#FFFFFF" d="M632.228,83.549l-46.186,131.19h25.367l10.849-32.349h49.322l10.869,32.349h25.367l-46.25-131.19
					H632.228z M628.661,163.301l17.724-52.848h1.025l17.756,52.848H628.661z"/>
				<polygon fill="#FFFFFF" points="809.281,172.974 808.128,172.974 746.376,83.549 725.109,83.549 725.109,214.739 
					748.875,214.739 748.875,125.378 749.964,125.378 811.779,214.739 832.918,214.739 832.918,83.549 809.281,83.549 				"/>
				<path fill="#FFFFFF" d="M941.43,167.272c0,5.467-1.196,10.335-3.587,14.605c-2.392,4.271-5.797,7.613-10.217,10.025
					c-4.42,2.413-9.641,3.619-15.662,3.619s-11.232-1.206-15.63-3.619c-4.399-2.413-7.805-5.754-10.217-10.025
					c-2.413-4.27-3.62-9.138-3.62-14.605V83.549h-23.765v85.709c0,9.396,2.199,17.659,6.598,24.791
					c4.398,7.132,10.591,12.694,18.577,16.687c7.985,3.993,17.337,5.989,28.057,5.989c10.676,0,20.007-1.996,27.993-5.989
					c7.985-3.993,14.189-9.555,18.609-16.687c4.42-7.132,6.63-15.395,6.63-24.791V83.549H941.43V167.272z"/>
				<path fill="#FFFFFF" d="M1083.83,163.044c-2.136-4.228-5.028-7.836-8.68-10.826c-3.651-2.989-7.773-5.466-12.363-7.431
					c-4.591-1.964-9.363-3.523-14.317-4.676l-12.299-3.075c-2.69-0.641-5.36-1.43-8.007-2.37c-2.648-0.939-5.061-2.103-7.239-3.491
					c-2.178-1.387-3.897-3.085-5.156-5.093c-1.26-2.007-1.89-4.377-1.89-7.11c0.042-3.288,1.003-6.213,2.883-8.776
					c1.879-2.562,4.59-4.59,8.135-6.085c3.544-1.494,7.793-2.242,12.748-2.242c7.046,0,12.78,1.56,17.2,4.676
					c4.42,3.118,6.928,7.474,7.527,13.068h22.869c-0.128-7.388-2.2-13.933-6.214-19.634c-4.015-5.701-9.535-10.163-16.559-13.388
					c-7.025-3.224-15.192-4.836-24.502-4.836c-9.182,0-17.403,1.612-24.662,4.836c-7.261,3.225-12.994,7.741-17.2,13.548
					c-4.207,5.809-6.31,12.578-6.31,20.307c0,9.396,3.128,16.922,9.384,22.58c6.256,5.659,14.787,9.876,25.591,12.651l14.925,3.844
					c4.697,1.196,8.808,2.552,12.331,4.067c3.523,1.517,6.267,3.396,8.231,5.637c1.964,2.242,2.968,5.072,3.011,8.488
					c-0.043,3.758-1.175,7.036-3.395,9.833c-2.221,2.797-5.285,4.976-9.192,6.534c-3.907,1.56-8.445,2.338-13.612,2.338
					c-4.954,0-9.427-0.747-13.42-2.242c-3.994-1.495-7.229-3.757-9.705-6.79c-2.478-3.032-3.887-6.833-4.228-11.402h-23.381
					c0.342,8.712,2.616,16.101,6.822,22.164c4.206,6.064,10.057,10.676,17.552,13.836c7.495,3.16,16.345,4.74,26.552,4.74
					c10.505,0,19.462-1.633,26.872-4.9c7.409-3.267,13.078-7.815,17.007-13.645c3.929-5.829,5.894-12.587,5.894-20.274
					C1087.033,172.227,1085.965,167.272,1083.83,163.044z"/>
			</g>
		</g>
		<g id="Logo_horizontal_default">
			<g>
				<g>
					<linearGradient id="SVGID_1_" gradientUnits="userSpaceOnUse" x1="6.0767" y1="150.0005" x2="291.7612" y2="150.0005">
						<stop  offset="0" style="stop-color:#2196F3"/>
						<stop  offset="1" style="stop-color:#3949AB"/>
					</linearGradient>
					<circle opacity="0.1" fill="url(#SVGID_1_)" cx="148.919" cy="150" r="142.842"/>
					<linearGradient id="SVGID_2_" gradientUnits="userSpaceOnUse" x1="45.3477" y1="150.0005" x2="252.4902" y2="150.0005">
						<stop  offset="0" style="stop-color:#2196F3"/>
						<stop  offset="1" style="stop-color:#3949AB"/>
					</linearGradient>
					<circle fill="url(#SVGID_2_)" cx="148.919" cy="150" r="103.571"/>
					<linearGradient id="SVGID_3_" gradientUnits="userSpaceOnUse" x1="242.667" y1="62.1563" x2="279.665" y2="62.1563">
						<stop  offset="0" style="stop-color:#2196F3"/>
						<stop  offset="1" style="stop-color:#3949AB"/>
					</linearGradient>
					<circle fill="url(#SVGID_3_)" cx="261.166" cy="62.156" r="18.499"/>
				</g>
			</g>
			<g>
				<path fill="#263238" d="M427.566,167.272c0,5.467-1.196,10.335-3.587,14.605c-2.392,4.271-5.797,7.613-10.217,10.025
					c-4.42,2.413-9.641,3.619-15.662,3.619c-6.021,0-11.232-1.206-15.63-3.619c-4.399-2.413-7.805-5.754-10.217-10.025
					c-2.413-4.27-3.619-9.138-3.619-14.605V83.549h-23.766v85.709c0,9.396,2.199,17.659,6.598,24.791
					c4.398,7.132,10.59,12.694,18.577,16.687c7.985,3.993,17.338,5.989,28.057,5.989c10.676,0,20.007-1.996,27.994-5.989
					c7.985-3.993,14.188-9.555,18.608-16.687c4.42-7.132,6.63-15.395,6.63-24.791V83.549h-23.766V167.272z"/>
				<path fill="#263238" d="M551.581,161.667c6.918-3.352,12.161-8.114,15.727-14.285c3.565-6.17,5.349-13.462,5.349-21.875
					c0-8.37-1.762-15.705-5.285-22.004c-3.523-6.299-8.712-11.199-15.566-14.701c-6.854-3.501-15.321-5.253-25.399-5.253H477.21
					v131.19h23.766v-48.043h24.183l25.781,48.043h26.52l-28.389-51.963C549.928,162.429,550.767,162.062,551.581,161.667z
					 M500.976,103.407h21.78c5.935,0,10.782,0.865,14.541,2.594c3.757,1.729,6.555,4.25,8.391,7.559
					c1.835,3.31,2.754,7.292,2.754,11.947c0,4.655-0.907,8.574-2.723,11.754c-1.815,3.182-4.602,5.595-8.359,7.239
					c-3.758,1.645-8.584,2.466-14.477,2.466h-21.908V103.407z"/>
				<path fill="#263238" d="M632.228,83.549l-46.186,131.19h25.367l10.849-32.349h49.322l10.869,32.349h25.367l-46.25-131.19
					H632.228z M628.661,163.301l17.724-52.848h1.025l17.756,52.848H628.661z"/>
				<polygon fill="#263238" points="809.281,172.974 808.128,172.974 746.376,83.549 725.109,83.549 725.109,214.739 
					748.875,214.739 748.875,125.378 749.964,125.378 811.779,214.739 832.918,214.739 832.918,83.549 809.281,83.549 				"/>
				<path fill="#263238" d="M941.43,167.272c0,5.467-1.196,10.335-3.587,14.605c-2.392,4.271-5.797,7.613-10.217,10.025
					c-4.42,2.413-9.641,3.619-15.662,3.619s-11.232-1.206-15.63-3.619c-4.399-2.413-7.805-5.754-10.217-10.025
					c-2.413-4.27-3.62-9.138-3.62-14.605V83.549h-23.765v85.709c0,9.396,2.199,17.659,6.598,24.791
					c4.398,7.132,10.591,12.694,18.577,16.687c7.985,3.993,17.337,5.989,28.057,5.989c10.676,0,20.007-1.996,27.993-5.989
					c7.985-3.993,14.189-9.555,18.609-16.687c4.42-7.132,6.63-15.395,6.63-24.791V83.549H941.43V167.272z"/>
				<path fill="#263238" d="M1083.83,163.044c-2.136-4.228-5.028-7.836-8.68-10.826c-3.651-2.989-7.773-5.466-12.363-7.431
					c-4.591-1.964-9.363-3.523-14.317-4.676l-12.299-3.075c-2.69-0.641-5.36-1.43-8.007-2.37c-2.648-0.939-5.061-2.103-7.239-3.491
					c-2.178-1.387-3.897-3.085-5.156-5.093c-1.26-2.007-1.89-4.377-1.89-7.11c0.042-3.288,1.003-6.213,2.883-8.776
					c1.879-2.562,4.59-4.59,8.135-6.085c3.544-1.494,7.793-2.242,12.748-2.242c7.046,0,12.78,1.56,17.2,4.676
					c4.42,3.118,6.928,7.474,7.527,13.068h22.869c-0.128-7.388-2.2-13.933-6.214-19.634c-4.015-5.701-9.535-10.163-16.559-13.388
					c-7.025-3.224-15.192-4.836-24.502-4.836c-9.182,0-17.403,1.612-24.662,4.836c-7.261,3.225-12.994,7.741-17.2,13.548
					c-4.207,5.809-6.31,12.578-6.31,20.307c0,9.396,3.128,16.922,9.384,22.58c6.256,5.659,14.787,9.876,25.591,12.651l14.925,3.844
					c4.697,1.196,8.808,2.552,12.331,4.067c3.523,1.517,6.267,3.396,8.231,5.637c1.964,2.242,2.968,5.072,3.011,8.488
					c-0.043,3.758-1.175,7.036-3.395,9.833c-2.221,2.797-5.285,4.976-9.192,6.534c-3.907,1.56-8.445,2.338-13.612,2.338
					c-4.954,0-9.427-0.747-13.42-2.242c-3.994-1.495-7.229-3.757-9.705-6.79c-2.478-3.032-3.887-6.833-4.228-11.402h-23.381
					c0.342,8.712,2.616,16.101,6.822,22.164c4.206,6.064,10.057,10.676,17.552,13.836c7.495,3.16,16.345,4.74,26.552,4.74
					c10.505,0,19.462-1.633,26.872-4.9c7.409-3.267,13.078-7.815,17.007-13.645c3.929-5.829,5.894-12.587,5.894-20.274
					C1087.033,172.227,1085.965,167.272,1083.83,163.044z"/>
			</g>
		</g>
	</g>
	<g id="icon" display="none">
	</g>
	<g id="logo" display="none">
	</g>
</g>
<g id="Helios_1_" display="none">
</g>
<g id="ceres_4_" display="none">
</g>
<g id="jupiter_4_" display="none">
</g>
<g id="netuno_4_" display="none">
</g>
<g id="saturno_4_" display="none">
</g>
<g id="marte_5_" display="none">
</g>
<g id="atlas_5_" display="none">
</g>
<g id="plutão_5_" display="none">
</g>
<g id="venus_3_" display="none">
</g>
</svg>
